<?xml version="1.0" encoding="UTF-8" standalone="no"?>
<!-- Created with Inkscape (http://www.inkscape.org/) -->

<svg
   version="1.1"
   id="svg521"
   width="880"
   height="880"
   viewBox="0 0 880 880"
   sodipodi:docname="blood-transfusion-publicdomainvectors.org.svg"
   inkscape:version="1.2 (dc2aedaf03, 2022-05-15)"
   xmlns:inkscape="http://www.inkscape.org/namespaces/inkscape"
   xmlns:sodipodi="http://sodipodi.sourceforge.net/DTD/sodipodi-0.dtd"
   xmlns="http://www.w3.org/2000/svg"
   xmlns:svg="http://www.w3.org/2000/svg">
  <defs
     id="defs525">
    <clipPath
       clipPathUnits="userSpaceOnUse"
       id="clipPath541">
      <path
         d="M 0,660 H 660 V 0 H 0 Z"
         id="path539" />
    </clipPath>
  </defs>
  <sodipodi:namedview
     id="namedview523"
     pagecolor="#ffffff"
     bordercolor="#000000"
     borderopacity="0.25"
     inkscape:showpageshadow="2"
     inkscape:pageopacity="0.0"
     inkscape:pagecheckerboard="0"
     inkscape:deskcolor="#d1d1d1"
     showgrid="false"
     inkscape:zoom="0.95113636"
     inkscape:cx="440.52569"
     inkscape:cy="440.52569"
     inkscape:window-width="1920"
     inkscape:window-height="1017"
     inkscape:window-x="-8"
     inkscape:window-y="-8"
     inkscape:window-maximized="1"
     inkscape:current-layer="g529">
    <inkscape:page
       x="0"
       y="0"
       id="page527"
       width="880"
       height="880" />
  </sodipodi:namedview>
  <g
     id="g529"
     inkscape:groupmode="layer"
     inkscape:label="Page 1"
     transform="matrix(1.3333333,0,0,-1.3333333,0,880)">
    <g
       id="g531"
       transform="translate(319.7168,340.623)">
      <path
         d="m 0,0 0.253,52.913 h 10.16 L 10.162,0 Z"
         style="fill:#e3bfbf;fill-opacity:1;fill-rule:evenodd;stroke:none"
         id="path533" />
    </g>
    <g
       id="g535">
      <g
         id="g537"
         clip-path="url(#clipPath541)">
        <g
           id="g543"
           transform="translate(267.5371,532.0068)">
          <path
             d="m 0,0 h 62.951 c 19.215,0 34.937,-15.721 34.937,-34.936 0,-13.045 1.452,-107.313 -1.485,-114.995 -9.484,-24.789 -41.453,-1.252 -59.681,1.474 -28.285,4.23 -50.708,-18.754 -66.01,-4.551 -8.648,8.025 -5.65,36.677 -5.65,48.509 v 69.563 C -34.938,-15.721 -19.215,0 0,0"
             style="fill:#e3bfbf;fill-opacity:1;fill-rule:evenodd;stroke:none"
             id="path545" />
        </g>
        <g
           id="g547"
           transform="translate(598.2705,322.2588)">
          <path
             d="m 0,0 -82.896,-82.892 c -24.133,-24.136 -96.54,48.271 -72.407,72.405 l 82.896,82.894 C -48.271,96.543 24.131,24.135 0,0"
             style="fill:#94ab13;fill-opacity:1;fill-rule:evenodd;stroke:none"
             id="path549" />
        </g>
        <g
           id="g551"
           transform="translate(540.0156,256.1934)">
          <path
             d="m 0,0 -0.537,-0.535 -25.031,-25.154 -80.056,80.07 24.952,25.222 0.561,0.559 C -53.399,106.875 26.705,26.704 0,0"
             style="fill:#dde8a0;fill-opacity:1;fill-rule:evenodd;stroke:none"
             id="path553" />
        </g>
        <g
           id="g555"
           transform="translate(513.4951,229.4775)">
          <path
             d="m 0,0 -0.537,-0.537 c -26.707,-26.71 -106.848,53.425 -80.135,80.135 l 0.561,0.563 C -53.399,106.873 26.705,26.703 0,0"
             style="fill:#f3facb;fill-opacity:1;fill-rule:evenodd;stroke:none"
             id="path557" />
        </g>
        <g
           id="g559"
           transform="translate(494.3105,240.0244)">
          <path
             d="m 0,0 -62.275,-62.272 c -17.496,-17.498 -69.995,34.997 -52.496,52.496 l 62.272,62.272 C -35,69.995 17.494,17.493 0,0"
             style="fill:#ffcc99;fill-opacity:1;fill-rule:evenodd;stroke:none"
             id="path561" />
        </g>
        <g
           id="g563"
           transform="translate(407.8096,275.0605)">
          <path
             d="m 0,0 -199.954,-58.147 7.119,-44.792 198.769,-2.225 C 54.264,-105.704 45.789,13.317 0,0"
             style="fill:#ffcc99;fill-opacity:1;fill-rule:evenodd;stroke:none"
             id="path565" />
        </g>
        <g
           id="g567"
           transform="translate(114.3447,244.4111)">
          <path
             d="m 0,0 h 82.51 c 20.312,0 36.93,-16.616 36.93,-36.932 v -10.215 c 0,-20.311 -16.618,-36.932 -36.93,-36.932 l -82.51,0 z"
             style="fill:#ffcc99;fill-opacity:1;fill-rule:evenodd;stroke:none"
             id="path569" />
        </g>
        <g
           id="g571"
           transform="translate(175.2529,288.9648)">
          <path
             d="M 0,0 V 0 C 6.901,3.377 15.307,0.496 18.681,-6.402 L 39.973,-49.91 14.89,-62.185 -6.403,-18.678 C -9.776,-11.781 -6.896,-3.376 0,0"
             style="fill:#ffcc99;fill-opacity:1;fill-rule:evenodd;stroke:none"
             id="path573" />
        </g>
        <g
           id="g575"
           transform="translate(168.96,244.4111)">
          <path
             d="M 0,0 14.928,13.357 30.659,-12.994 Z"
             style="fill:#ffcc99;fill-opacity:1;fill-rule:evenodd;stroke:none"
             id="path577" />
        </g>
        <g
           id="g579"
           transform="translate(97.9414,244.4111)">
          <path
             d="m 0,0 h 33.986 c 7.187,0 13.065,-5.878 13.065,-13.061 v -0.002 c 0,-7.186 -5.878,-13.064 -13.065,-13.064 H 0 c -7.185,0 -13.063,5.878 -13.063,13.064 v 0.002 C -13.063,-5.878 -7.185,0 0,0"
             style="fill:#ffcc99;fill-opacity:1;fill-rule:evenodd;stroke:none"
             id="path581" />
        </g>
        <g
           id="g583"
           transform="translate(98.9609,248.2021)">
          <path
             d="m 0,0 7.884,-11.27 c 3.685,-5.264 2.392,-12.59 -2.875,-16.277 H 5.007 c -5.268,-3.685 -12.591,-2.391 -16.277,2.878 l -7.884,11.266 c -3.686,5.268 -2.391,12.593 2.875,16.278 h 0.002 C -11.009,6.561 -3.686,5.267 0,0"
             style="fill:#ffcc99;fill-opacity:1;fill-rule:evenodd;stroke:none"
             id="path585" />
        </g>
        <g
           id="g587"
           transform="translate(99.9385,254.8398)">
          <path
             d="m 0,0 -1.326,-11.892 c -0.619,-5.558 -5.676,-9.597 -11.234,-8.978 h -10e-4 c -5.559,0.619 -9.599,5.674 -8.98,11.234 l 1.327,11.89 c 0.62,5.558 5.674,9.6 11.234,8.977 C -3.422,10.613 0.62,5.559 0,0"
             style="fill:#ffcc99;fill-opacity:1;fill-rule:evenodd;stroke:none"
             id="path589" />
        </g>
        <g
           id="g591"
           transform="translate(91.7261,224.1035)">
          <path
             d="m 0,0 h 37.601 c 7.95,0 14.455,-6.505 14.455,-14.455 0,-7.949 -6.505,-14.452 -14.455,-14.452 H 0 c -7.95,0 -14.454,6.503 -14.454,14.452 C -14.454,-6.505 -7.95,0 0,0"
             style="fill:#ffcc99;fill-opacity:1;fill-rule:evenodd;stroke:none"
             id="path593" />
        </g>
        <g
           id="g595"
           transform="translate(92.854,228.2959)">
          <path
             d="m 0,0 8.722,-12.467 c 4.078,-5.827 2.647,-13.931 -3.182,-18.008 -5.829,-4.08 -13.933,-2.647 -18.01,3.18 l -8.724,12.467 c -4.077,5.83 -2.645,13.933 3.182,18.011 h 0.002 C -12.182,7.26 -4.079,5.827 0,0"
             style="fill:#f2bd88;fill-opacity:1;fill-rule:evenodd;stroke:none"
             id="path597" />
        </g>
        <g
           id="g599"
           transform="translate(93.9346,235.6396)">
          <path
             d="m 0,0 -1.467,-13.155 c -0.687,-6.152 -6.278,-10.62 -12.43,-9.935 -6.151,0.686 -10.621,6.278 -9.935,12.429 l 1.467,13.155 c 0.685,6.15 6.28,10.621 12.43,9.936 C -3.786,11.744 0.686,6.152 0,0"
             style="fill:#f2bd88;fill-opacity:1;fill-rule:evenodd;stroke:none"
             id="path601" />
        </g>
        <g
           id="g603"
           transform="translate(94.0815,199.7109)">
          <path
             d="m 0,0 h 33.988 c 7.184,0 13.062,-5.878 13.062,-13.063 0,-7.185 -5.878,-13.063 -13.062,-13.063 H 0 c -7.184,0 -13.063,5.878 -13.063,13.063 C -13.063,-5.878 -7.184,0 0,0"
             style="fill:#ffcc99;fill-opacity:1;fill-rule:evenodd;stroke:none"
             id="path605" />
        </g>
        <g
           id="g607"
           transform="translate(95.1025,203.5)">
          <path
             d="m 0,0 7.884,-11.266 c 3.684,-5.269 2.391,-12.592 -2.877,-16.278 -5.268,-3.686 -12.593,-2.392 -16.278,2.875 l -7.884,11.268 c -3.685,5.266 -2.392,12.592 2.876,16.276 V 2.877 C -11.011,6.563 -3.686,5.269 0,0"
             style="fill:#ffcc99;fill-opacity:1;fill-rule:evenodd;stroke:none"
             id="path609" />
        </g>
        <g
           id="g611"
           transform="translate(96.0781,210.1396)">
          <path
             d="M 0,0 -1.325,-11.892 C -1.945,-17.45 -7,-21.491 -12.56,-20.872 h -10e-4 c -5.557,0.621 -9.598,5.676 -8.978,11.234 l 1.325,11.892 c 0.62,5.558 5.675,9.6 11.234,8.978 C -3.42,10.613 0.62,5.557 0,0"
             style="fill:#ffcc99;fill-opacity:1;fill-rule:evenodd;stroke:none"
             id="path613" />
        </g>
        <g
           id="g615"
           transform="translate(109.3906,179.6953)">
          <path
             d="m 0,0 h 25.186 c 5.326,0 9.681,-4.355 9.681,-9.679 v -0.003 c 0,-5.323 -4.355,-9.681 -9.681,-9.681 H 0 c -5.324,0 -9.68,4.358 -9.68,9.681 v 0.003 C -9.68,-4.355 -5.324,0 0,0"
             style="fill:#f2bd88;fill-opacity:1;fill-rule:evenodd;stroke:none"
             id="path617" />
        </g>
        <g
           id="g619"
           transform="translate(110.1465,182.5039)">
          <path
             d="m 0,0 5.843,-8.352 c 2.731,-3.903 1.772,-9.331 -2.131,-12.06 -3.904,-2.731 -9.331,-1.775 -12.064,2.131 l -5.841,8.348 c -2.732,3.907 -1.773,9.332 2.132,12.064 C -8.158,4.86 -2.73,3.903 0,0"
             style="fill:#f2bd88;fill-opacity:1;fill-rule:evenodd;stroke:none"
             id="path621" />
        </g>
        <g
           id="g623"
           transform="translate(402.7109,229.6416)">
          <path
             d="m 0,0 -10.563,-3.701 c -0.412,-0.141 -0.76,1.118 -0.349,1.261 L -0.406,1.218 C -0.002,1.355 0.402,0.139 0,0"
             style="fill:#18a1ab;fill-opacity:1;fill-rule:evenodd;stroke:none"
             id="path625" />
        </g>
        <g
           id="g627"
           transform="translate(110.8721,187.4229)">
          <path
             d="m 0,0 -0.983,-8.812 c -0.459,-4.121 -4.205,-7.116 -8.326,-6.656 -4.12,0.461 -7.114,4.205 -6.654,8.323 l 0.983,8.816 c 0.459,4.118 4.205,7.113 8.324,6.652 C -2.536,7.866 0.459,4.121 0,0"
             style="fill:#f2bd88;fill-opacity:1;fill-rule:evenodd;stroke:none"
             id="path629" />
        </g>
        <g
           id="g631"
           transform="translate(393.459,221.2568)">
          <path
             d="m 0,0 -18.202,-6.221 c -3.333,-1.14 -6.157,9.083 -2.811,10.191 L -3.294,9.843 C -0.013,10.933 3.265,1.118 0,0"
             style="fill:#2dc0ca;fill-opacity:1;fill-rule:evenodd;stroke:none"
             id="path633" />
        </g>
        <g
           id="g635"
           transform="translate(374.7891,215.7314)">
          <path
             d="m 0,0 -23.781,-7.996 c -28.915,-9.72 -57.292,14.662 -57.155,44.345 l 0.696,145.678 8.912,-0.035 -0.695,-145.679 C -72.137,12.785 -49.79,-7.333 -26.613,0.461 L -2.832,8.459 C -0.013,9.408 2.813,0.946 0,0"
             style="fill:#e3bfbf;fill-opacity:1;fill-rule:evenodd;stroke:none"
             id="path637" />
        </g>
        <g
           id="g639"
           transform="translate(301.9541,396.2324)">
          <path
             d="M 0,0 -5.916,0.023 -6.602,-144.16 c -0.085,-17.537 10.35,-34.253 26.398,-41.487 9.191,-4.139 19.221,-4.646 28.779,-1.433 l 23.748,7.976 c 0.776,0.821 -0.769,5.449 -1.842,5.643 l -23.783,-7.996 c -7.874,-2.65 -16.161,-2.338 -23.806,0.91 -14.269,6.058 -23.652,20.952 -23.578,36.366 z"
             style="fill:#f24005;fill-opacity:1;fill-rule:evenodd;stroke:none"
             id="path641" />
        </g>
        <g
           id="g643"
           transform="translate(265.7217,340.623)">
          <path
             d="M 0,0 0.253,52.913 H 10.416 L 10.165,0 Z"
             style="fill:#e3bfbf;fill-opacity:1;fill-rule:evenodd;stroke:none"
             id="path645" />
        </g>
        <g
           id="g647"
           transform="translate(267.6807,393.5361)">
          <path
             d="M 0,0 -0.251,-42.656 H 6.497 L 6.748,0 Z"
             style="fill:#f24005;fill-opacity:1;fill-rule:evenodd;stroke:none"
             id="path649" />
        </g>
        <g
           id="g651"
           transform="translate(267.5371,526.854)">
          <path
             d="M 0,0 C -16.37,0 -29.784,-13.413 -29.784,-29.783 V -65.018 H 92.971 C 92.866,-53.27 92.733,-41.524 92.733,-29.783 92.733,-13.413 79.322,0 62.951,0 Z"
             style="fill:#ebe5e4;fill-opacity:1;fill-rule:evenodd;stroke:none"
             id="path653" />
        </g>
        <g
           id="g655"
           transform="translate(271.6045,512.5898)">
          <path
             d="m 0,0 v 0 c 11.582,0 21.057,-9.475 21.057,-21.056 v -72.352 c 0,-11.582 -9.475,-21.058 -21.057,-21.058 -11.582,0 -21.057,9.476 -21.057,21.058 v 72.352 C -21.057,-9.475 -11.582,0 0,0"
             style="fill:#f7f3f2;fill-opacity:1;fill-rule:evenodd;stroke:none"
             id="path657" />
        </g>
        <g
           id="g659"
           transform="translate(237.7529,461.8364)">
          <path
             d="m 0,0 v -34.329 c 0,-8.835 -2.537,-38.662 4.001,-44.731 1.514,-1.404 3.197,-2.394 5.205,-2.901 6.464,-1.633 16.809,2.243 23.019,4.199 11.646,3.668 22.714,6.416 35.044,4.572 7.669,-1.146 16.158,-4.972 23.446,-7.728 6.341,-2.396 18.202,-6.887 24.84,-3.963 2.982,1.311 4.691,4.014 5.788,6.873 0.443,1.477 0.573,4.602 0.676,6.175 0.286,4.389 0.421,8.809 0.532,13.207 0.302,12.275 0.335,24.579 0.327,36.858 -0.005,7.256 -0.059,14.512 -0.123,21.768 z"
             style="fill:#f24005;fill-opacity:1;fill-rule:evenodd;stroke:none"
             id="path661" />
        </g>
        <g
           id="g663"
           transform="translate(292.6611,461.8364)">
          <path
             d="m 0,0 h -42.113 v -42.658 c 0,-11.581 9.474,-21.054 21.056,-21.054 11.582,0 21.057,9.473 21.057,21.054 z"
             style="fill:#fc6b3a;fill-opacity:1;fill-rule:evenodd;stroke:none"
             id="path665" />
        </g>
        <g
           id="g667"
           transform="translate(321.6738,393.5361)">
          <path
             d="M 0,0 -0.251,-42.656 H 6.497 L 6.75,0 Z"
             style="fill:#f24005;fill-opacity:1;fill-rule:evenodd;stroke:none"
             id="path669" />
        </g>
        <g
           id="g671"
           transform="translate(355.96,231.5908)">
          <path
             d="m 0,0 14.603,-30.811 c 3.599,-7.593 26.963,2.681 23.09,10.143 L 22.607,8.4 C 18.903,15.537 -3.443,7.26 0,0"
             style="fill:#ffffff;fill-opacity:1;fill-rule:evenodd;stroke:none"
             id="path673" />
        </g>
        <g
           id="g675"
           transform="translate(339.4717,221.4414)">
          <path
             d="m 0,0 10.817,-24.398 c 1.86,-4.198 14.571,1.386 12.611,5.536 L 12.347,4.589 C 10.472,8.559 -1.775,4.011 0,0"
             style="fill:#ffffff;fill-opacity:1;fill-rule:evenodd;stroke:none"
             id="path677" />
        </g>
      </g>
    </g>
  </g>
</svg>
