<?xml version="1.0" encoding="utf-8" ?>
<svg xmlns="http://www.w3.org/2000/svg" xmlns:xlink="http://www.w3.org/1999/xlink" width="56" height="64" viewBox="0 0 56 64">
	<path d="M39.925 40.0781L28 52.0031L16.075 40.0781C7.1375 40.4656 0 47.7781 0 56.8031L0 58.0031C0 61.3156 2.6875 64.0031 6 64.0031L50 64.0031C53.3125 64.0031 56 61.3156 56 58.0031L56 56.8031C56 47.7781 48.8625 40.4656 39.925 40.0781ZM1.7 9.97812L2.5 10.1656L2.5 17.4656C1.625 17.9906 1 18.9031 1 20.0031C1 21.0531 1.575 21.9281 2.3875 22.4656L0.4375 30.2531C0.225 31.1156 0.7 32.0031 1.3875 32.0031L6.6125 32.0031C7.3 32.0031 7.775 31.1156 7.5625 30.2531L5.6125 22.4656C6.425 21.9281 7 21.0531 7 20.0031C7 18.9031 6.375 17.9906 5.5 17.4656L5.5 10.8906L13.75 12.8781C12.675 15.0281 12 17.4281 12 20.0031C12 28.8406 19.1625 36.0031 28 36.0031C36.8375 36.0031 44 28.8406 44 20.0031C44 17.4281 43.3375 15.0281 42.25 12.8781L54.2875 9.97812C56.5625 9.42812 56.5625 6.59063 54.2875 6.04063L30.4875 0.290625C28.8625 -0.096875 27.15 -0.096875 25.525 0.290625L1.7 6.02812C-0.5625 6.57812 -0.5625 9.42812 1.7 9.97812Z" fill-rule="nonzero" transform="matrix(1 0 0 1 0 -0.00312464)" fill="rgb(58, 110, 165)"/>
</svg>
