<?xml version="1.0" encoding="utf-8" ?>
<svg xmlns="http://www.w3.org/2000/svg" xmlns:xlink="http://www.w3.org/1999/xlink" width="64" height="51.2002" viewBox="0 0 64 51.2002">
	<defs>
		<clipPath id="clipPath6639556559">
			<path d="M0 0L64 0L64 51.2L0 51.2L0 0Z" fill-rule="nonzero" transform="matrix(1 0 0 1 0 -0.000366211)"/>
		</clipPath>
	</defs>
	<g clip-path="url(#clipPath6639556559)">
		<path d="M20.8002 28.16C20.5612 28.16 20.3222 28.188 20.0942 28.2472C18.7982 28.584 17.4352 28.8 16.0002 28.8C14.5652 28.8 13.2022 28.584 11.9052 28.2472C11.6772 28.188 11.4392 28.16 11.2002 28.16C4.99416 28.16 -0.0328385 32.1984 0.000161548 37.1696C0.0141615 39.2704 2.17316 40.96 4.80016 40.96L27.2002 40.96C29.8272 40.96 31.9862 39.2704 32.0002 37.1696C32.0332 32.1984 27.0062 28.16 20.8002 28.16ZM16.0002 25.6C21.3022 25.6 25.6002 22.1616 25.6002 17.92C25.6002 13.6784 21.3022 10.24 16.0002 10.24C10.6982 10.24 6.40016 13.6784 6.40016 17.92C6.40016 22.1616 10.6982 25.6 16.0002 25.6ZM59.2002 0L20.8002 0C18.1532 0 16.0002 1.78 16.0002 3.9672L16.0002 7.68C18.3422 7.68 20.5102 8.2224 22.4002 9.104L22.4002 5.12L57.6002 5.12L57.6002 28.16L51.2002 28.16L51.2002 23.04L38.4002 23.04L38.4002 28.16L30.7762 28.16C32.6862 29.4952 34.0882 31.2584 34.7452 33.28L59.2002 33.28C61.8472 33.28 64.0002 31.5 64.0002 29.3128L64.0002 3.9672C64.0002 1.78 61.8472 0 59.2002 0Z" fill-rule="nonzero" transform="matrix(1 0 0 1 -0.000183105 5.11965)" fill="rgb(58, 110, 165)"/>
	</g>
</svg>
